<svg width="100" height="100" viewBox="0 0 100 100" fill="none" xmlns="http://www.w3.org/2000/svg">
<rect width="100" height="100" fill="#0E1A53"/>
<path d="M70.4539 54.1496C77.3878 49.62 79.6566 40.3807 75.4604 33.1189C73.3579 29.4765 69.9592 26.8679 65.8931 25.7787C62.126 24.768 58.1914 25.1813 54.7283 26.9297L50 18.75L40.1853 35.7378L17.5 75H82.5L70.4539 54.1496ZM64.7813 29.94C67.7368 30.7267 70.1962 32.6232 71.7281 35.264C74.739 40.4695 73.1749 47.072 68.292 50.4067L56.8875 30.6687C59.3444 29.4881 62.1157 29.2306 64.7813 29.94ZM50 27.3714L75.025 70.688H60.3828L42.6757 40.0485L49.9987 27.3726L50 27.3714ZM24.975 70.688L40.184 44.3682L55.3931 70.688H24.975Z" fill="url(#paint0_linear_3023_3169)"/>
<defs>
<linearGradient id="paint0_linear_3023_3169" x1="25.3063" y1="70.4637" x2="75.9485" y2="42.6746" gradientUnits="userSpaceOnUse">
<stop stop-color="#FC3519"/>
<stop offset="1" stop-color="#F0D136"/>
</linearGradient>
</defs>
</svg>
