<svg width="160" height="160" viewBox="0 0 160 160" fill="none" xmlns="http://www.w3.org/2000/svg">
<rect width="160" height="160" rx="24" fill="#0E1A53"/>
<path d="M112.726 86.6394C123.821 79.3921 127.451 64.609 120.737 52.9903C117.373 47.1624 111.935 42.9887 105.429 41.2459C99.4016 39.6287 93.1062 40.29 87.5652 43.0876L80 30L64.2965 57.1805L28 120H132L112.726 86.6394ZM103.65 47.904C108.379 49.1627 112.314 52.1972 114.765 56.4224C119.582 64.7512 117.08 75.3152 109.267 80.6507L91.0201 49.07C94.9511 47.1809 99.3851 46.7689 103.65 47.904ZM80 43.7942L120.04 113.101H96.6125L68.2811 64.0776L79.9979 43.7962L80 43.7942ZM39.96 113.101L64.2945 70.9891L88.6289 113.101H39.96Z" fill="url(#paint0_linear_12904_82186)"/>
<defs>
<linearGradient id="paint0_linear_12904_82186" x1="40.4901" y1="112.742" x2="121.518" y2="68.2794" gradientUnits="userSpaceOnUse">
<stop stop-color="#FC3519"/>
<stop offset="1" stop-color="#F0D136"/>
</linearGradient>
</defs>
</svg>
